<?xml version="1.0" encoding="utf-8"?>
<!-- Generator: Adobe Illustrator 27.1.1, SVG Export Plug-In . SVG Version: 6.00 Build 0)  -->
<svg version="1.1" id="Layer_1" xmlns="http://www.w3.org/2000/svg" xmlns:xlink="http://www.w3.org/1999/xlink" x="0px" y="0px"
	 viewBox="0 0 697.28 509.62" style="enable-background:new 0 0 697.28 509.62;" xml:space="preserve">
<style type="text/css">
	.st0{fill:#2E2628;}
</style>
<g>
	<path class="st0" d="M113.49,213.02c0.11,0,0.23-0.01,0.34-0.01c26.69,0,48.41,21.72,48.41,48.42c0,26.44-21.3,47.98-47.64,48.4
		c1.86,1.85,3.84,3.59,5.9,5.22c26.66-3.3,47.37-26.08,47.37-53.62c0-27.98-21.37-51.06-48.64-53.78
		C117.21,209.33,115.3,211.12,113.49,213.02z"/>
	<path class="st0" d="M113.83,225.32c19.91,0,36.1,16.19,36.1,36.1s-16.19,36.1-36.1,36.1c-3.44,0-6.75-0.51-9.9-1.41
		c1.38,2.32,2.89,4.55,4.53,6.69c1.76,0.23,3.55,0.36,5.37,0.36c23.01,0,41.73-18.72,41.73-41.73c0-23.01-18.72-41.73-41.73-41.73
		c-2.16,0-4.27,0.16-6.34,0.48c-1.58,2.17-3.03,4.43-4.35,6.77C106.51,225.89,110.11,225.32,113.83,225.32z"/>
	<path class="st0" d="M113.83,237.64c13.12,0,23.78,10.67,23.78,23.78c0,13.12-10.67,23.78-23.78,23.78
		c-6.96,0-13.22-3.03-17.57-7.81c0.81,3.31,1.87,6.53,3.14,9.63c4.27,2.42,9.19,3.81,14.43,3.81c16.22,0,29.42-13.2,29.42-29.42
		s-13.2-29.42-29.42-29.42c-5.5,0-10.63,1.54-15.04,4.18c-1.19,3.12-2.16,6.35-2.89,9.66C100.26,240.83,106.67,237.64,113.83,237.64
		z"/>
	<path class="st0" d="M163.36,191.72c-6.94,0-13.64,1.03-19.96,2.94c25.58,11.38,43.47,37.01,43.47,66.77
		c0,29.13-17.15,54.33-41.88,66.04c5.85,1.61,12,2.49,18.37,2.49c38.17,0,69.12-30.94,69.12-69.12S201.53,191.72,163.36,191.72z"/>
	<path class="st0" d="M113.83,278.53c9.43,0,17.1-7.67,17.1-17.1c0-9.43-7.67-17.1-17.1-17.1c-9.43,0-17.1,7.67-17.1,17.1
		C96.73,270.85,104.4,278.53,113.83,278.53z M113.83,249.96c6.32,0,11.47,5.15,11.47,11.47c0,6.32-5.15,11.47-11.47,11.47
		c-6.32,0-11.47-5.15-11.47-11.47C102.36,255.1,107.51,249.96,113.83,249.96z"/>
	<path class="st0" d="M113.83,266.21c2.64,0,4.79-2.15,4.79-4.79c0-2.64-2.15-4.79-4.79-4.79c-2.64,0-4.79,2.15-4.79,4.79
		C109.04,264.06,111.19,266.21,113.83,266.21z"/>
	<path class="st0" d="M174.56,261.42c0,28.5-19.74,52.46-46.25,58.97c2.33,1.38,4.76,2.62,7.25,3.72
		c25.95-9.02,44.63-33.71,44.63-62.69c0-29.53-19.4-54.61-46.12-63.19c-2.48,1.16-4.87,2.46-7.18,3.9
		C154.12,208.12,174.56,232.43,174.56,261.42z"/>
	<path class="st0" d="M95.89,245.85c-3.63,4.18-5.85,9.62-5.85,15.57c0,6.15,2.37,11.75,6.21,15.97
		c-1.31-5.31-2.01-10.85-2.01-16.56C94.25,255.69,94.83,250.68,95.89,245.85z"/>
	<path class="st0" d="M84.41,261.42c0-10.72,5.78-20.09,14.38-25.24c1.22-3.2,2.68-6.29,4.35-9.25
		c-14.7,4.57-25.41,18.3-25.41,34.48c0,16.47,11.1,30.37,26.2,34.69c-1.72-2.9-3.24-5.93-4.53-9.08
		C90.46,281.98,84.41,272.4,84.41,261.42z"/>
	<path class="st0" d="M108.45,302.8c-20.48-2.65-36.36-20.19-36.36-41.38c0-20.86,15.38-38.19,35.39-41.25
		c1.84-2.52,3.84-4.91,6-7.15c-26.54,0.19-48.07,21.82-48.07,48.41c0,26.7,21.72,48.42,48.42,48.42c0.26,0,0.52-0.02,0.78-0.02
		C112.4,307.62,110.35,305.28,108.45,302.8z"/>
	<path class="st0" d="M113.83,315.47c-29.8,0-54.05-24.24-54.05-54.05s24.24-54.05,54.05-54.05c1.82,0,3.63,0.09,5.4,0.27
		c2.42-2.01,4.98-3.85,7.67-5.52c-4.21-0.93-8.58-1.43-13.07-1.43c-33.49,0-60.73,27.24-60.73,60.73s27.24,60.73,60.73,60.73
		c4.99,0,9.83-0.62,14.47-1.76c-2.72-1.61-5.33-3.4-7.79-5.35C118.32,315.32,116.09,315.47,113.83,315.47z"/>
	<path class="st0" d="M113.83,327.79c-36.59,0-66.36-29.77-66.36-66.36c0-36.59,29.77-66.36,66.36-66.36
		c7.06,0,13.86,1.12,20.25,3.17c3-1.41,6.11-2.6,9.33-3.57c-9.05-4.02-19.05-6.28-29.58-6.28c-40.28,0-73.04,32.77-73.04,73.04
		c0,40.28,32.77,73.04,73.04,73.04c11.14,0,21.71-2.52,31.17-7c-3.25-0.89-6.4-2.02-9.44-3.35
		C128.74,326.48,121.44,327.79,113.83,327.79z"/>
</g>
<g>
	<path class="st0" d="M265.44,242.98h-19.09v-12.73h51.98v12.73h-19.09V293h-13.8V242.98z"/>
	<path class="st0" d="M328.41,293.89c-4.78,0-9.47-0.82-14.07-2.46c-4.6-1.64-8.78-4.17-12.55-7.57l8.16-9.77
		c2.87,2.33,5.81,4.18,8.83,5.56c3.02,1.38,6.32,2.06,9.9,2.06c2.87,0,5.09-0.52,6.68-1.57c1.58-1.04,2.37-2.49,2.37-4.35v-0.18
		c0-0.9-0.17-1.69-0.49-2.38c-0.33-0.69-0.96-1.33-1.89-1.93c-0.93-0.59-2.22-1.19-3.86-1.79c-1.65-0.6-3.79-1.23-6.43-1.88
		c-3.18-0.78-6.05-1.64-8.63-2.6c-2.58-0.96-4.76-2.14-6.56-3.54c-1.8-1.41-3.19-3.15-4.18-5.24c-0.99-2.09-1.48-4.69-1.48-7.8
		v-0.18c0-2.87,0.53-5.45,1.6-7.76c1.07-2.3,2.57-4.29,4.5-5.96c1.93-1.67,4.23-2.96,6.91-3.86c2.68-0.9,5.63-1.34,8.86-1.34
		c4.6,0,8.83,0.69,12.68,2.06c3.85,1.38,7.39,3.35,10.62,5.92l-7.17,10.4c-2.81-1.91-5.56-3.42-8.24-4.53
		c-2.69-1.11-5.38-1.66-8.07-1.66c-2.69,0-4.71,0.52-6.05,1.57c-1.35,1.04-2.02,2.34-2.02,3.9v0.18c0,1.02,0.19,1.9,0.58,2.64
		c0.39,0.75,1.09,1.42,2.11,2.02c1.02,0.59,2.41,1.17,4.18,1.7c1.77,0.54,4,1.17,6.69,1.88c3.18,0.84,6.01,1.78,8.49,2.82
		c2.49,1.05,4.58,2.3,6.29,3.76c1.71,1.46,3,3.18,3.87,5.16c0.87,1.97,1.3,4.33,1.3,7.08v0.18c0,3.11-0.56,5.87-1.69,8.29
		c-1.13,2.42-2.7,4.45-4.72,6.1c-2.02,1.64-4.43,2.9-7.23,3.76C334.92,293.46,331.82,293.89,328.41,293.89z"/>
	<path class="st0" d="M360.46,230.25h47.24v12.28h-33.61v12.73h29.58v12.28h-29.58v13.18h34.06V293h-47.68V230.25z"/>
	<path class="st0" d="M417.61,230.25h12.73l29.4,38.63v-38.63h13.62V293h-11.74l-30.38-39.89V293h-13.62V230.25z"/>
	<path class="st0" d="M500.13,242.98h-19.09v-12.73h51.99v12.73h-19.09V293h-13.8V242.98z"/>
	<path class="st0" d="M540.69,230.25h47.24v12.28h-33.61v12.73h29.58v12.28h-29.58v13.18h34.06V293h-47.68V230.25z"/>
	<path class="st0" d="M597.84,230.25h28.68c7.95,0,14.04,2.12,18.28,6.36c3.59,3.59,5.38,8.37,5.38,14.34v0.18
		c0,5.08-1.24,9.22-3.72,12.41c-2.48,3.2-5.72,5.55-9.73,7.04L652.07,293h-16.14l-13.44-20.08h-0.18h-10.67V293h-13.8V230.25z
		 M625.63,260.73c3.41,0,6.02-0.81,7.84-2.42c1.82-1.62,2.73-3.77,2.73-6.45v-0.18c0-2.99-0.96-5.23-2.87-6.72
		c-1.91-1.49-4.57-2.24-7.98-2.24h-13.71v18.01H625.63z"/>
</g>
</svg>
