<?xml version="1.0" encoding="utf-8"?>
<!-- Generator: Adobe Illustrator 26.2.1, SVG Export Plug-In . SVG Version: 6.00 Build 0)  -->
<svg version="1.1" id="Layer_1" xmlns="http://www.w3.org/2000/svg" xmlns:xlink="http://www.w3.org/1999/xlink" x="0px" y="0px"
	 viewBox="0 0 697.28 509.62" style="enable-background:new 0 0 697.28 509.62;" xml:space="preserve">
<style type="text/css">
	.st0{fill:#EDE937;}
</style>
<g>
	<g>
		<path class="st0" d="M314.69,116.63c0.15,0,0.3-0.01,0.45-0.01c35.03,0,63.54,28.5,63.54,63.54c0,34.7-27.95,62.97-62.52,63.51
			c2.44,2.43,5.04,4.71,7.75,6.86c34.99-4.33,62.16-34.23,62.16-70.37c0-36.72-28.04-67.01-63.84-70.58
			C319.58,111.78,317.07,114.15,314.69,116.63z"/>
		<path class="st0" d="M315.14,132.78c26.12,0,47.38,21.25,47.38,47.38s-21.25,47.38-47.38,47.38c-4.51,0-8.86-0.67-13-1.86
			c1.81,3.05,3.8,5.98,5.94,8.78c2.31,0.3,4.66,0.47,7.05,0.47c30.2,0,54.77-24.57,54.77-54.77c0-30.2-24.57-54.77-54.77-54.77
			c-2.83,0-5.61,0.22-8.32,0.63c-2.07,2.84-3.98,5.81-5.71,8.89C305.54,133.53,310.25,132.78,315.14,132.78z"/>
		<path class="st0" d="M315.14,148.95c17.21,0,31.21,14,31.21,31.21c0,17.21-14,31.21-31.21,31.21c-9.14,0-17.35-3.97-23.06-10.25
			c1.07,4.35,2.45,8.57,4.12,12.64c5.6,3.17,12.06,5,18.94,5c21.29,0,38.61-17.32,38.61-38.61s-17.32-38.61-38.61-38.61
			c-7.22,0-13.95,2.03-19.74,5.49c-1.56,4.09-2.84,8.33-3.8,12.68C297.33,153.13,305.74,148.95,315.14,148.95z"/>
		<path class="st0" d="M380.14,88.68c-9.11,0-17.9,1.36-26.19,3.86c33.57,14.93,57.05,48.58,57.05,87.62
			c0,38.23-22.51,71.3-54.96,86.68c7.68,2.11,15.75,3.26,24.1,3.26c50.1,0,90.71-40.61,90.71-90.71S430.24,88.68,380.14,88.68z"/>
		<path class="st0" d="M315.14,202.6c12.38,0,22.44-10.07,22.44-22.44c0-12.38-10.07-22.44-22.44-22.44
			c-12.38,0-22.44,10.07-22.44,22.44C292.69,192.54,302.76,202.6,315.14,202.6z M315.14,165.11c8.3,0,15.05,6.75,15.05,15.05
			s-6.75,15.05-15.05,15.05c-8.3,0-15.05-6.75-15.05-15.05S306.84,165.11,315.14,165.11z"/>
		<path class="st0" d="M315.14,186.44c3.46,0,6.28-2.82,6.28-6.28s-2.82-6.28-6.28-6.28c-3.46,0-6.28,2.82-6.28,6.28
			S311.67,186.44,315.14,186.44z"/>
		<path class="st0" d="M394.84,180.16c0,37.4-25.9,68.85-60.7,77.39c3.06,1.81,6.24,3.44,9.52,4.88
			c34.06-11.84,58.58-44.24,58.58-82.27c0-38.76-25.46-71.67-60.52-82.93c-3.25,1.52-6.39,3.23-9.42,5.11
			C368.02,110.21,394.84,142.1,394.84,180.16z"/>
		<path class="st0" d="M291.6,159.72c-4.77,5.48-7.68,12.62-7.68,20.44c0,8.07,3.11,15.42,8.15,20.96
			c-1.71-6.96-2.64-14.24-2.64-21.73C289.44,172.63,290.2,166.06,291.6,159.72z"/>
		<path class="st0" d="M276.53,180.16c0-14.07,7.59-26.37,18.87-33.12c1.61-4.2,3.52-8.26,5.7-12.13
			c-19.29,6-33.34,24.01-33.34,45.25c0,21.61,14.56,39.85,34.38,45.52c-2.26-3.8-4.25-7.78-5.94-11.92
			C284.47,207.13,276.53,194.56,276.53,180.16z"/>
		<path class="st0" d="M308.08,234.46c-26.88-3.47-47.72-26.49-47.72-54.3c0-27.37,20.18-50.12,46.45-54.14
			c2.41-3.31,5.04-6.44,7.87-9.39c-34.83,0.24-63.09,28.64-63.09,63.53c0,35.04,28.5,63.54,63.54,63.54c0.34,0,0.68-0.02,1.02-0.03
			C313.26,240.79,310.57,237.71,308.08,234.46z"/>
		<path class="st0" d="M315.14,251.09c-39.11,0-70.93-31.82-70.93-70.93s31.82-70.93,70.93-70.93c2.39,0,4.76,0.12,7.09,0.36
			c3.18-2.64,6.54-5.05,10.06-7.25c-5.53-1.22-11.26-1.88-17.15-1.88c-43.95,0-79.7,35.75-79.7,79.7s35.75,79.7,79.7,79.7
			c6.55,0,12.9-0.81,19-2.31c-3.58-2.11-6.99-4.46-10.23-7.02C321.03,250.89,318.11,251.09,315.14,251.09z"/>
		<path class="st0" d="M315.14,267.25c-48.02,0-87.09-39.07-87.09-87.09c0-48.02,39.07-87.09,87.09-87.09
			c9.26,0,18.19,1.47,26.57,4.16c3.94-1.84,8.02-3.42,12.24-4.69c-11.88-5.28-25-8.24-38.81-8.24c-52.86,0-95.86,43.01-95.86,95.86
			c0,52.86,43.01,95.86,95.86,95.86c14.63,0,28.49-3.3,40.9-9.19c-4.26-1.17-8.4-2.65-12.39-4.4
			C334.71,265.54,325.12,267.25,315.14,267.25z"/>
	</g>
	<path class="st0" d="M107.46,359.28H82.41v-16.7h68.22v16.7h-25.05v65.64h-18.11V359.28z"/>
	<path class="st0" d="M190.11,426.1c-6.28,0-12.43-1.08-18.47-3.23c-6.04-2.15-11.53-5.47-16.47-9.94l10.71-12.82
		c3.76,3.06,7.63,5.49,11.59,7.29c3.96,1.81,8.29,2.7,13,2.7c3.77,0,6.68-0.68,8.76-2.06c2.08-1.37,3.12-3.27,3.12-5.7v-0.24
		c0-1.18-0.22-2.21-0.65-3.12c-0.43-0.9-1.26-1.74-2.48-2.53c-1.22-0.78-2.91-1.57-5.07-2.35c-2.16-0.79-4.97-1.61-8.43-2.47
		c-4.17-1.02-7.94-2.15-11.32-3.41c-3.38-1.25-6.25-2.8-8.61-4.65c-2.36-1.85-4.19-4.13-5.48-6.88c-1.3-2.75-1.95-6.16-1.95-10.24
		v-0.23c0-3.77,0.7-7.16,2.1-10.18c1.4-3.02,3.37-5.63,5.9-7.82c2.53-2.19,5.56-3.88,9.07-5.06c3.51-1.17,7.39-1.76,11.62-1.76
		c6.04,0,11.59,0.9,16.65,2.71c5.06,1.81,9.7,4.39,13.94,7.76l-9.41,13.65c-3.69-2.51-7.29-4.49-10.82-5.94
		c-3.53-1.45-7.06-2.18-10.59-2.18c-3.53,0-6.18,0.69-7.94,2.06c-1.77,1.37-2.65,3.07-2.65,5.12v0.24c0,1.33,0.26,2.49,0.77,3.47
		c0.51,0.98,1.43,1.86,2.77,2.65c1.34,0.78,3.16,1.53,5.48,2.23c2.32,0.71,5.25,1.53,8.79,2.47c4.17,1.1,7.88,2.34,11.15,3.71
		c3.26,1.37,6.01,3.02,8.25,4.94c2.24,1.92,3.93,4.18,5.07,6.77c1.14,2.59,1.71,5.68,1.71,9.29v0.23c0,4.08-0.74,7.71-2.22,10.88
		c-1.48,3.18-3.55,5.85-6.2,8c-2.65,2.15-5.81,3.8-9.48,4.94C198.65,425.53,194.58,426.1,190.11,426.1z"/>
	<path class="st0" d="M232.18,342.58h61.99v16.12h-44.11v16.7h38.82v16.11h-38.82v17.3h44.7v16.11h-62.58V342.58z"/>
	<path class="st0" d="M307.17,342.58h16.71l38.58,50.7v-50.7h17.88v82.34h-15.41l-39.88-52.35v52.35h-17.88V342.58z"/>
	<path class="st0" d="M415.47,359.28h-25.06v-16.7h68.22v16.7h-25.05v65.64h-18.12V359.28z"/>
	<path class="st0" d="M468.71,342.58h61.99v16.12h-44.11v16.7h38.82v16.11h-38.82v17.3h44.7v16.11h-62.58V342.58z"/>
	<path class="st0" d="M543.71,342.58h37.64c10.43,0,18.43,2.79,23.99,8.35c4.71,4.71,7.06,10.98,7.06,18.82v0.24
		c0,6.67-1.63,12.1-4.88,16.29c-3.25,4.2-7.51,7.28-12.76,9.24l20.12,29.4H593.7l-17.64-26.35h-0.24h-14v26.35h-18.11V342.58z
		 M580.17,382.58c4.47,0,7.9-1.06,10.29-3.17c2.39-2.12,3.59-4.95,3.59-8.47v-0.24c0-3.92-1.26-6.86-3.76-8.82
		c-2.51-1.96-6-2.94-10.47-2.94h-18v23.64H580.17z"/>
</g>
</svg>
