<?xml version="1.0" encoding="utf-8"?>
<!-- Generator: Adobe Illustrator 26.2.1, SVG Export Plug-In . SVG Version: 6.00 Build 0)  -->
<svg version="1.1" id="Layer_1" xmlns="http://www.w3.org/2000/svg" xmlns:xlink="http://www.w3.org/1999/xlink" x="0px" y="0px"
	 viewBox="0 0 697.28 509.62" style="enable-background:new 0 0 697.28 509.62;" xml:space="preserve">
<style type="text/css">
	.st0{fill:#2E2628;}
	.st1{fill:#E4F321;}
</style>
<g>
	<g>
		<circle class="st0" cx="381.26" cy="179.39" r="90.71"/>
	</g>
</g>
<g>
	<g>
		<path class="st1" d="M316.25,195.21c-8.3,0-15.05-6.75-15.05-15.05c0-8.3,6.75-15.05,15.05-15.05c8.3,0,15.05,6.75,15.05,15.05
			C331.3,188.46,324.54,195.21,316.25,195.21z M316.25,173.88c-3.46,0-6.28,2.82-6.28,6.28s2.82,6.28,6.28,6.28s6.28-2.82,6.28-6.28
			S319.71,173.88,316.25,173.88z"/>
	</g>
	<g>
		<path class="st1" d="M316.25,211.37c-17.21,0-31.22-14-31.22-31.21c0-17.21,14-31.22,31.22-31.22c17.21,0,31.21,14,31.21,31.22
			C347.46,197.37,333.46,211.37,316.25,211.37z M316.25,157.72c-12.38,0-22.44,10.07-22.44,22.45c0,12.37,10.07,22.44,22.44,22.44
			c12.37,0,22.44-10.07,22.44-22.44C338.69,167.78,328.62,157.72,316.25,157.72z"/>
	</g>
	<g>
		<path class="st1" d="M316.25,227.53c-26.12,0-47.38-21.25-47.38-47.37s21.26-47.38,47.38-47.38s47.37,21.26,47.37,47.38
			S342.37,227.53,316.25,227.53z M316.25,141.55c-21.29,0-38.61,17.32-38.61,38.61c0,21.29,17.32,38.6,38.61,38.6
			c21.29,0,38.6-17.32,38.6-38.6C354.85,158.87,337.53,141.55,316.25,141.55z"/>
	</g>
	<g>
		<path class="st1" d="M316.25,243.7c-35.03,0-63.54-28.51-63.54-63.54s28.51-63.54,63.54-63.54s63.54,28.51,63.54,63.54
			S351.28,243.7,316.25,243.7z M316.25,125.39c-30.2,0-54.77,24.57-54.77,54.77s24.57,54.77,54.77,54.77
			c30.2,0,54.76-24.57,54.76-54.77S346.44,125.39,316.25,125.39z"/>
	</g>
	<g>
		<path class="st1" d="M316.25,259.86c-43.95,0-79.7-35.75-79.7-79.7s35.75-79.7,79.7-79.7s79.7,35.75,79.7,79.7
			S360.2,259.86,316.25,259.86z M316.25,109.23c-39.11,0-70.93,31.82-70.93,70.93s31.82,70.93,70.93,70.93s70.93-31.82,70.93-70.93
			S355.36,109.23,316.25,109.23z"/>
	</g>
	<g>
		<path class="st1" d="M316.25,276.02c-52.86,0-95.87-43-95.87-95.86s43.01-95.86,95.87-95.86s95.86,43,95.86,95.86
			S369.11,276.02,316.25,276.02z M316.25,93.07c-48.03,0-87.1,39.07-87.1,87.09s39.07,87.09,87.1,87.09
			c48.02,0,87.09-39.07,87.09-87.09S364.27,93.07,316.25,93.07z"/>
	</g>
</g>
<g>
	<g>
		<g>
			<path class="st0" d="M108.57,359.28H83.52v-16.7h68.22v16.7h-25.05v65.64h-18.11V359.28z"/>
		</g>
	</g>
	<g>
		<g>
			<path class="st0" d="M191.22,426.1c-6.28,0-12.43-1.08-18.47-3.23c-6.04-2.15-11.53-5.47-16.47-9.94l10.71-12.82
				c3.76,3.06,7.63,5.49,11.59,7.29c3.96,1.81,8.29,2.7,13,2.7c3.77,0,6.68-0.68,8.76-2.06c2.08-1.37,3.12-3.27,3.12-5.7v-0.24
				c0-1.18-0.22-2.21-0.65-3.12c-0.43-0.9-1.26-1.74-2.48-2.53c-1.22-0.78-2.91-1.57-5.07-2.35c-2.16-0.79-4.97-1.61-8.43-2.47
				c-4.17-1.02-7.94-2.15-11.32-3.41c-3.38-1.25-6.25-2.8-8.61-4.65c-2.36-1.85-4.19-4.13-5.48-6.88c-1.3-2.75-1.95-6.16-1.95-10.24
				v-0.23c0-3.77,0.7-7.16,2.1-10.18c1.4-3.02,3.37-5.63,5.9-7.82c2.53-2.19,5.56-3.88,9.07-5.06c3.51-1.17,7.39-1.76,11.62-1.76
				c6.04,0,11.59,0.9,16.65,2.71c5.06,1.81,9.7,4.39,13.94,7.76l-9.41,13.65c-3.69-2.51-7.29-4.49-10.82-5.94
				c-3.53-1.45-7.06-2.18-10.59-2.18c-3.53,0-6.18,0.69-7.94,2.06c-1.77,1.37-2.65,3.07-2.65,5.12v0.24c0,1.33,0.26,2.49,0.77,3.47
				c0.51,0.98,1.43,1.86,2.77,2.65c1.34,0.78,3.16,1.53,5.48,2.23c2.32,0.71,5.25,1.53,8.79,2.47c4.17,1.1,7.88,2.34,11.15,3.71
				c3.26,1.37,6.01,3.02,8.25,4.94c2.24,1.92,3.93,4.18,5.07,6.77c1.14,2.59,1.71,5.68,1.71,9.29v0.23c0,4.08-0.74,7.71-2.22,10.88
				c-1.48,3.18-3.55,5.85-6.2,8c-2.65,2.15-5.81,3.8-9.48,4.94C199.76,425.53,195.69,426.1,191.22,426.1z"/>
		</g>
	</g>
	<g>
		<g>
			<path class="st0" d="M233.29,342.58h61.99v16.12h-44.11v16.7h38.82v16.11h-38.82v17.3h44.7v16.11h-62.58V342.58z"/>
		</g>
	</g>
	<g>
		<g>
			<path class="st0" d="M308.29,342.58h16.71l38.58,50.7v-50.7h17.88v82.34h-15.41l-39.88-52.35v52.35h-17.88V342.58z"/>
		</g>
	</g>
	<g>
		<g>
			<path class="st0" d="M416.58,359.28h-25.06v-16.7h68.22v16.7h-25.05v65.64h-18.12V359.28z"/>
		</g>
	</g>
	<g>
		<g>
			<path class="st0" d="M469.82,342.58h61.99v16.12H487.7v16.7h38.82v16.11H487.7v17.3h44.7v16.11h-62.58V342.58z"/>
		</g>
	</g>
	<g>
		<g>
			<path class="st0" d="M544.82,342.58h37.64c10.43,0,18.43,2.79,23.99,8.35c4.71,4.71,7.06,10.98,7.06,18.82v0.24
				c0,6.67-1.63,12.1-4.88,16.29c-3.25,4.2-7.51,7.28-12.76,9.24l20.12,29.4h-21.18l-17.64-26.35h-0.24h-14v26.35h-18.11V342.58z
				 M581.28,382.58c4.47,0,7.9-1.06,10.29-3.17c2.39-2.12,3.59-4.95,3.59-8.47v-0.24c0-3.92-1.26-6.86-3.76-8.82
				c-2.51-1.96-6-2.94-10.47-2.94h-18v23.64H581.28z"/>
		</g>
	</g>
</g>
</svg>
